<mxfile host="app.diagrams.net" modified="2020-10-07T13:29:09.690Z" agent="5.0 (Windows)" etag="t6mWG0qybVwt4JUdn6_R" version="13.7.7" type="github">
  <diagram id="1pve7G_Nw9EV43bGC_KO" name="Page-1">
    <mxGraphModel dx="1422" dy="1932" grid="1" gridSize="10" guides="1" tooltips="1" connect="1" arrows="1" fold="1" page="1" pageScale="1" pageWidth="827" pageHeight="1169" math="0" shadow="0">
      <root>
        <mxCell id="0" />
        <mxCell id="1" parent="0" />
        <mxCell id="Edys33FGykN4HNRYdyJ1-45" value="main" style="rounded=0;whiteSpace=wrap;html=1;fillColor=#fff2cc;strokeColor=#d6b656;verticalAlign=top;" vertex="1" parent="1">
          <mxGeometry x="120" y="-640" width="680" height="2600" as="geometry" />
        </mxCell>
        <mxCell id="Edys33FGykN4HNRYdyJ1-51" value="section" style="rounded=1;whiteSpace=wrap;html=1;fillColor=#ffe6cc;strokeColor=#d79b00;" vertex="1" parent="1">
          <mxGeometry x="130" y="-590" width="650" height="270" as="geometry" />
        </mxCell>
        <mxCell id="Edys33FGykN4HNRYdyJ1-42" value="header" style="rounded=0;whiteSpace=wrap;html=1;fillColor=#d5e8d4;strokeColor=#82b366;verticalAlign=top;" vertex="1" parent="1">
          <mxGeometry y="-800" width="800" height="160" as="geometry" />
        </mxCell>
        <mxCell id="Edys33FGykN4HNRYdyJ1-43" value="aside nav" style="rounded=0;whiteSpace=wrap;html=1;fillColor=#e1d5e7;strokeColor=#9673a6;verticalAlign=top;" vertex="1" parent="1">
          <mxGeometry y="-640" width="120" height="2760" as="geometry" />
        </mxCell>
        <mxCell id="Edys33FGykN4HNRYdyJ1-44" value="nav" style="rounded=0;whiteSpace=wrap;html=1;fillColor=#e1d5e7;strokeColor=#9673a6;" vertex="1" parent="1">
          <mxGeometry x="10" y="-720" width="780" height="70" as="geometry" />
        </mxCell>
        <mxCell id="Edys33FGykN4HNRYdyJ1-46" value="footer" style="rounded=0;whiteSpace=wrap;html=1;fillColor=#ffe6cc;strokeColor=#d79b00;verticalAlign=bottom;" vertex="1" parent="1">
          <mxGeometry x="120" y="1960" width="680" height="160" as="geometry" />
        </mxCell>
        <mxCell id="Edys33FGykN4HNRYdyJ1-48" value="aside" style="rounded=1;whiteSpace=wrap;html=1;" vertex="1" parent="1">
          <mxGeometry x="511" y="-560" width="240" height="210" as="geometry" />
        </mxCell>
        <mxCell id="Edys33FGykN4HNRYdyJ1-49" value="article" style="rounded=1;whiteSpace=wrap;html=1;fillColor=#dae8fc;strokeColor=#6c8ebf;" vertex="1" parent="1">
          <mxGeometry x="164" y="-560" width="236" height="210" as="geometry" />
        </mxCell>
        <mxCell id="Edys33FGykN4HNRYdyJ1-52" value="section" style="rounded=1;whiteSpace=wrap;html=1;fillColor=#ffe6cc;strokeColor=#d79b00;" vertex="1" parent="1">
          <mxGeometry x="130" y="-310" width="650" height="250" as="geometry" />
        </mxCell>
        <mxCell id="Edys33FGykN4HNRYdyJ1-53" value="aside" style="rounded=1;whiteSpace=wrap;html=1;" vertex="1" parent="1">
          <mxGeometry x="164" y="-280" width="236" height="190" as="geometry" />
        </mxCell>
        <mxCell id="Edys33FGykN4HNRYdyJ1-54" value="article" style="rounded=1;whiteSpace=wrap;html=1;fillColor=#dae8fc;strokeColor=#6c8ebf;" vertex="1" parent="1">
          <mxGeometry x="510" y="-280" width="240" height="190" as="geometry" />
        </mxCell>
        <mxCell id="Edys33FGykN4HNRYdyJ1-57" value="section" style="rounded=1;whiteSpace=wrap;html=1;fillColor=#ffe6cc;strokeColor=#d79b00;" vertex="1" parent="1">
          <mxGeometry x="130" y="-50" width="650" height="240" as="geometry" />
        </mxCell>
        <mxCell id="Edys33FGykN4HNRYdyJ1-58" value="article" style="rounded=1;whiteSpace=wrap;html=1;fillColor=#dae8fc;strokeColor=#6c8ebf;" vertex="1" parent="1">
          <mxGeometry x="164" y="-20" width="236" height="180" as="geometry" />
        </mxCell>
        <mxCell id="Edys33FGykN4HNRYdyJ1-59" value="aside" style="rounded=1;whiteSpace=wrap;html=1;fillColor=#f5f5f5;strokeColor=#666666;fontColor=#333333;" vertex="1" parent="1">
          <mxGeometry x="510" y="-20" width="240" height="180" as="geometry" />
        </mxCell>
        <mxCell id="Edys33FGykN4HNRYdyJ1-60" value="section" style="rounded=1;whiteSpace=wrap;html=1;fillColor=#ffe6cc;strokeColor=#d79b00;" vertex="1" parent="1">
          <mxGeometry x="130" y="200" width="650" height="230" as="geometry" />
        </mxCell>
        <mxCell id="Edys33FGykN4HNRYdyJ1-61" value="aside" style="rounded=1;whiteSpace=wrap;html=1;" vertex="1" parent="1">
          <mxGeometry x="164" y="230" width="236" height="170" as="geometry" />
        </mxCell>
        <mxCell id="Edys33FGykN4HNRYdyJ1-62" value="article" style="rounded=1;whiteSpace=wrap;html=1;fillColor=#dae8fc;strokeColor=#6c8ebf;" vertex="1" parent="1">
          <mxGeometry x="510" y="230" width="240" height="170" as="geometry" />
        </mxCell>
        <mxCell id="Edys33FGykN4HNRYdyJ1-63" value="section" style="rounded=1;whiteSpace=wrap;html=1;fillColor=#ffe6cc;strokeColor=#d79b00;" vertex="1" parent="1">
          <mxGeometry x="130" y="440" width="650" height="320" as="geometry" />
        </mxCell>
        <mxCell id="Edys33FGykN4HNRYdyJ1-64" value="article" style="rounded=1;whiteSpace=wrap;html=1;fillColor=#dae8fc;strokeColor=#6c8ebf;" vertex="1" parent="1">
          <mxGeometry x="178" y="465" width="236" height="120" as="geometry" />
        </mxCell>
        <mxCell id="Edys33FGykN4HNRYdyJ1-65" value="article" style="rounded=1;whiteSpace=wrap;html=1;fillColor=#dae8fc;strokeColor=#6c8ebf;" vertex="1" parent="1">
          <mxGeometry x="514" y="465" width="236" height="120" as="geometry" />
        </mxCell>
        <mxCell id="Edys33FGykN4HNRYdyJ1-66" value="article" style="rounded=1;whiteSpace=wrap;html=1;fillColor=#dae8fc;strokeColor=#6c8ebf;" vertex="1" parent="1">
          <mxGeometry x="178" y="610" width="236" height="125" as="geometry" />
        </mxCell>
        <mxCell id="Edys33FGykN4HNRYdyJ1-67" value="article" style="rounded=1;whiteSpace=wrap;html=1;fillColor=#dae8fc;strokeColor=#6c8ebf;" vertex="1" parent="1">
          <mxGeometry x="511" y="610" width="242" height="125" as="geometry" />
        </mxCell>
        <mxCell id="Edys33FGykN4HNRYdyJ1-68" value="section" style="rounded=1;whiteSpace=wrap;html=1;fillColor=#ffe6cc;strokeColor=#d79b00;verticalAlign=top;" vertex="1" parent="1">
          <mxGeometry x="130" y="780" width="650" height="180" as="geometry" />
        </mxCell>
        <mxCell id="Edys33FGykN4HNRYdyJ1-69" value="article" style="rounded=1;whiteSpace=wrap;html=1;fillColor=#dae8fc;strokeColor=#6c8ebf;" vertex="1" parent="1">
          <mxGeometry x="160" y="810" width="180" height="140" as="geometry" />
        </mxCell>
        <mxCell id="Edys33FGykN4HNRYdyJ1-70" value="article" style="rounded=1;whiteSpace=wrap;html=1;fillColor=#dae8fc;strokeColor=#6c8ebf;" vertex="1" parent="1">
          <mxGeometry x="580" y="810" width="160" height="140" as="geometry" />
        </mxCell>
        <mxCell id="Edys33FGykN4HNRYdyJ1-71" value="aside" style="rounded=1;whiteSpace=wrap;html=1;fillColor=#f5f5f5;strokeColor=#666666;fontColor=#333333;" vertex="1" parent="1">
          <mxGeometry x="375" y="810" width="170" height="140" as="geometry" />
        </mxCell>
        <mxCell id="Edys33FGykN4HNRYdyJ1-72" value="Article" style="rounded=1;whiteSpace=wrap;html=1;fillColor=#dae8fc;strokeColor=#6c8ebf;verticalAlign=top;" vertex="1" parent="1">
          <mxGeometry x="130" y="980" width="650" height="220" as="geometry" />
        </mxCell>
        <mxCell id="Edys33FGykN4HNRYdyJ1-73" value="article" style="rounded=1;whiteSpace=wrap;html=1;fillColor=#dae8fc;strokeColor=#6c8ebf;" vertex="1" parent="1">
          <mxGeometry x="130" y="1210" width="650" height="220" as="geometry" />
        </mxCell>
        <mxCell id="Edys33FGykN4HNRYdyJ1-74" value="nav" style="rounded=1;whiteSpace=wrap;html=1;fillColor=#e1d5e7;strokeColor=#9673a6;" vertex="1" parent="1">
          <mxGeometry x="150" y="1090" width="610" height="90" as="geometry" />
        </mxCell>
        <mxCell id="Edys33FGykN4HNRYdyJ1-75" value="section" style="rounded=1;whiteSpace=wrap;html=1;fillColor=#ffe6cc;strokeColor=#d79b00;" vertex="1" parent="1">
          <mxGeometry x="130" y="1440" width="650" height="320" as="geometry" />
        </mxCell>
        <mxCell id="Edys33FGykN4HNRYdyJ1-76" value="article" style="rounded=1;whiteSpace=wrap;html=1;fillColor=#dae8fc;strokeColor=#6c8ebf;" vertex="1" parent="1">
          <mxGeometry x="230" y="1490" width="190" height="230" as="geometry" />
        </mxCell>
        <mxCell id="Edys33FGykN4HNRYdyJ1-77" value="article" style="rounded=1;whiteSpace=wrap;html=1;fillColor=#dae8fc;strokeColor=#6c8ebf;" vertex="1" parent="1">
          <mxGeometry x="560" y="1490" width="190" height="230" as="geometry" />
        </mxCell>
        <mxCell id="Edys33FGykN4HNRYdyJ1-78" value="aside nav" style="rounded=1;whiteSpace=wrap;html=1;fillColor=#e1d5e7;strokeColor=#9673a6;" vertex="1" parent="1">
          <mxGeometry x="500" y="1490" width="60" height="230" as="geometry" />
        </mxCell>
        <mxCell id="Edys33FGykN4HNRYdyJ1-79" value="aside nav" style="rounded=1;whiteSpace=wrap;html=1;fillColor=#e1d5e7;strokeColor=#9673a6;" vertex="1" parent="1">
          <mxGeometry x="170" y="1490" width="60" height="230" as="geometry" />
        </mxCell>
        <mxCell id="Edys33FGykN4HNRYdyJ1-80" value="nav" style="rounded=1;whiteSpace=wrap;html=1;fillColor=#e1d5e7;strokeColor=#9673a6;" vertex="1" parent="1">
          <mxGeometry x="140" y="1970" width="640" height="70" as="geometry" />
        </mxCell>
        <mxCell id="Edys33FGykN4HNRYdyJ1-81" value="article" style="rounded=1;whiteSpace=wrap;html=1;fillColor=#dae8fc;strokeColor=#6c8ebf;" vertex="1" parent="1">
          <mxGeometry x="130" y="1770" width="650" height="180" as="geometry" />
        </mxCell>
      </root>
    </mxGraphModel>
  </diagram>
</mxfile>
